<svg width="43" height="43" viewBox="0 0 43 43" fill="none" xmlns="http://www.w3.org/2000/svg">
<path fill-rule="evenodd" clip-rule="evenodd" d="M17.1485 21.9217H18.6196V30.82C18.6196 31.0154 18.7842 31.18 18.9796 31.18H22.827C23.0225 31.18 23.187 31.0154 23.187 30.82V21.9217H25.4193C25.6045 21.9217 25.7588 21.7776 25.7794 21.6028L26.1189 18.3315C26.1394 18.136 25.9954 17.9611 25.8 17.9406C25.7897 17.9406 25.7794 17.9406 25.7588 17.9406H23.187V16.3769C23.187 16.2741 23.1973 16.1712 23.2385 16.0786C23.2796 15.986 23.3516 15.914 23.4545 15.8831C23.5162 15.8626 23.578 15.8523 23.6397 15.8523H25.7074C25.9028 15.8523 26.0674 15.6877 26.0674 15.4922V12.3238C26.0674 12.1284 25.9028 11.9638 25.7074 11.9638L22.8579 11.9535C22.1378 11.9329 21.4177 12.0872 20.7593 12.3855C20.3581 12.5707 19.9981 12.8382 19.6997 13.1571C19.2985 13.5891 19.0105 14.1138 18.8356 14.6796C18.6813 15.1733 18.6093 15.6774 18.6093 16.1918V17.9509H17.1382C16.9428 17.9509 16.7782 18.1154 16.7782 18.3109V21.5822C16.7885 21.7571 16.9428 21.9217 17.1485 21.9217Z" fill="#716565"/>
<path fill-rule="evenodd" clip-rule="evenodd" d="M21.4486 42.9795C33.2993 42.9898 42.9074 33.4022 42.928 21.5515C42.9486 9.70076 33.3405 0.0926286 21.5 0.0720545C9.6596 0.0514803 0.0308908 9.65962 0.0206038 21.5C0.0103167 27.1991 2.27347 32.6615 6.30601 36.6941C10.318 40.7266 15.7701 42.9795 21.4486 42.9795ZM21.4486 2.27349C32.106 2.2632 40.7574 10.9044 40.7677 21.5618C40.778 32.2192 32.1369 40.8706 21.4795 40.8809C10.822 40.8809 2.1706 32.25 2.16032 21.5926C2.16032 16.4697 4.18687 11.5524 7.81821 7.9211C11.429 4.30005 16.3359 2.2632 21.4486 2.27349Z" fill="#716565"/>
</svg>
