<svg width="43" height="43" viewBox="0 0 43 43" fill="none" xmlns="http://www.w3.org/2000/svg">
<path fill-rule="evenodd" clip-rule="evenodd" d="M21.4486 42.9795C33.2993 42.9898 42.9074 33.4022 42.928 21.5515C42.9486 9.70076 33.3405 0.0926286 21.5 0.0720545C9.6596 0.0514803 0.0308908 9.65962 0.0206038 21.5C0.0103167 27.1991 2.27347 32.6615 6.30601 36.6941C10.318 40.7266 15.7701 42.9795 21.4486 42.9795ZM21.4486 2.27349C32.106 2.2632 40.7574 10.9044 40.7677 21.5618C40.778 32.2192 32.1369 40.8706 21.4795 40.8809C10.822 40.8809 2.1706 32.25 2.16032 21.5926C2.16032 16.4697 4.18687 11.5524 7.81821 7.9211C11.429 4.30005 16.3359 2.2632 21.4486 2.27349Z" fill="#716565"/>
<path fill-rule="evenodd" clip-rule="evenodd" d="M11.5936 27.9293C13.4658 29.1329 15.6467 29.7707 17.8687 29.7707C19.5866 29.781 21.2943 29.4209 22.8579 28.7008C24.9256 27.7339 26.6538 26.1496 27.8163 24.1745C28.9067 22.3434 29.4931 20.2551 29.5137 18.1154C29.5137 18.0023 29.5137 17.8891 29.5137 17.776C30.2543 17.2102 30.9024 16.5312 31.4271 15.7494C31.5402 15.5848 31.4888 15.3585 31.3242 15.2453C31.2213 15.1733 31.0876 15.163 30.9744 15.2145C30.6967 15.3379 30.4189 15.4408 30.1309 15.5231C30.4909 15.1013 30.7584 14.6075 30.923 14.0829C30.9847 13.8977 30.8818 13.692 30.6864 13.6303C30.5835 13.5994 30.4806 13.6097 30.3881 13.6611C29.6988 14.0726 28.9479 14.3607 28.166 14.5355C26.4481 12.869 23.7117 12.9205 22.0452 14.6384C21.2634 15.4408 20.8314 16.5209 20.8314 17.6525C20.8314 17.8274 20.8416 17.992 20.8622 18.1669C17.9407 17.8994 15.2558 16.4695 13.4041 14.1858C13.2806 14.0315 13.0543 14.0109 12.9 14.1343C12.8692 14.1652 12.8383 14.1961 12.8177 14.2372C11.9227 15.7803 12.0565 17.7142 13.1778 19.103C13.0235 19.0413 12.8794 18.9796 12.7354 18.8973C12.5605 18.8047 12.3445 18.8664 12.2416 19.0413C12.2108 19.0927 12.2005 19.1441 12.2005 19.2059C12.2005 19.2367 12.2005 19.247 12.2005 19.2676C12.2005 20.7284 12.9412 22.0965 14.1756 22.8989C14.1242 22.8886 14.0727 22.8784 14.0213 22.8681C13.8259 22.8269 13.6407 22.9607 13.5995 23.1561C13.5893 23.2178 13.5893 23.2796 13.6098 23.331C14.0625 24.7609 15.2352 25.8513 16.6857 26.2114C15.2249 27.0961 13.5172 27.4664 11.8302 27.2607C11.6347 27.2401 11.4495 27.3738 11.429 27.5796C11.4187 27.7133 11.4804 27.847 11.5936 27.9293Z" fill="#716565"/>
</svg>
