<svg width="43" height="43" viewBox="0 0 43 43" fill="none" xmlns="http://www.w3.org/2000/svg">
<path fill-rule="evenodd" clip-rule="evenodd" d="M14.8854 28.4643H28.0117C29.7605 28.4643 31.1699 27.0549 31.1699 25.3061V17.7966C31.1699 16.058 29.7605 14.6384 28.0117 14.6384H14.8854C13.1469 14.6384 11.7273 16.0478 11.7273 17.7966V25.3061C11.7273 27.0549 13.1366 28.4643 14.8854 28.4643ZM19.9364 24.0511V18.3418L24.2672 21.1913L19.9364 24.0511Z" fill="#716565"/>
<path fill-rule="evenodd" clip-rule="evenodd" d="M21.4486 42.9795C33.2993 42.9898 42.9074 33.4022 42.928 21.5515C42.9486 9.70076 33.3405 0.0926286 21.5 0.0720545C9.6596 0.0514803 0.0308908 9.65962 0.0206038 21.5C0.0103167 27.1991 2.27347 32.6615 6.30601 36.6941C10.318 40.7266 15.7701 42.9795 21.4486 42.9795ZM21.4486 2.27349C32.106 2.2632 40.7574 10.9044 40.7677 21.5618C40.778 32.2192 32.1369 40.8706 21.4795 40.8809C10.822 40.8809 2.1706 32.25 2.16032 21.5926C2.16032 16.4697 4.18687 11.5524 7.81821 7.9211C11.429 4.30005 16.3359 2.2632 21.4486 2.27349Z" fill="#716565"/>
</svg>
